<svg xmlns="http://www.w3.org/2000/svg" viewBox="0 0 60 180" width="60" height="180">
  <path d="M42,150c1.2-3,2.2-6.2,2.2-9.6c0-5.8-2.2-11.4-6.2-15.6c-3.2-3.4-7.2-5.4-11.6-6.4c4-9.2,7.2-18.8,7.2-28.6
  c0-9.4-2.6-19-7.4-26.6c-3-5-7-9.4-11.6-13.2c0.6-4.4,1.6-8.8,3-13c0.8-3,3.4-10.2,3.8-13c-3.8-5.8-8.2-19.4,2.4-21.6
  c5.8-1.2,11.4,2,12.8,7.8c0.8,3.2,0,6.6-1.8,9.6c-2,3-4.4,5.4-6.4,8.2c-3.2,4.4-4.8,9.6-4.4,14.8c0.4,8.4,6.2,14.6,11.4,20.6
  c2.6,3,5,6.2,6.8,9.8c4.4,9,3.8,19.4,1.4,29c-1,4.2-2.6,9-4.2,14.4c-2.2-0.6-4.4-0.6-6.6-0.4c-4.2,0.8-7.8,3.6-10,7.4
  c-2.6,4.4-3.8,10.2-2,15.4c1.8,5,6.2,8.4,11.4,8.6c6.2,0.4,10.8-2.4,13.8-6.6c2.2-3,3-6.2,2.8-9.8C48,123.4,43.8,142.8,42,150z M28,166.2
  c-3.2,0.8-6.4-1-7.6-4.2c-1.2-3.4-0.8-7.6,1.2-10.6c2-3,4.8-4.2,8-3.6C30.4,155.4,30,161.6,28,166.2z M38,47.4c-1.6-3-3.6-5.6-5.8-8
  c-3.8-4-7.8-9.2-8-14.6c-0.2-5.6,3-9.8,5.2-14.8c1.8-3,2.8-6.6,1.4-9.8c-1.4-3.2-4.8-4.8-8.2-4c-6.8,1.4-3,11.6-1.4,14.6
  c1.6,3.8,2.6,8,3.2,12.2c-4.8,4.8-7.8,11-9.2,17.8c-1.8,7.4-0.6,15.4,2.2,22.4c3.4,9.2,9.4,16.2,12.4,25.4
  c-0.8-6.6-0.8-13.2,1.8-19.4C33.2,62.8,37.2,54.8,38,47.4z" 
  fill="#000000" />
</svg>
